<svg version="1.1" id="Layer_1" xmlns="http://www.w3.org/2000/svg" xmlns:xlink="http://www.w3.org/1999/xlink" x="0px" y="0px"
	 viewBox="0 0 175.8 164" enable-background="new 0 0 175.8 164" xml:space="preserve">
<g enable-background="new    ">
	<g>
		<path fill="#FF8320" d="M74,129.7c-2.1-3.8-1.7-3.3-1.3-3.6c0.1,0.5,0.1,0.3,0.3,0.8c-0.1-0.2-0.2-0.5-0.3-0.7
			c-0.3-0.8-0.5-1.6-0.6-2.2c-0.1-0.9-0.3-2.1-0.6-3.3c-0.2-0.7-0.6-1.7-0.4-2.3c0.1-0.2,0.5,0.2,0.7,0.4c0.3,0.2-0.3,0.6,1.1,0.8
			c0.2,0,0.5-0.2,0.5-0.4c0.1-0.2,0.1-0.4,0-0.5c-0.3-0.3-0.7-0.6-0.8-0.7c-1-1.5-2.3-2.4-3.3-1.8c-0.1,0.1-0.2,0.1-0.3,0.2
			c0.1,1.1,0.1,0.7,0.2,1.5c-0.2-0.3-0.5-0.6-0.7-0.9c-0.3-0.6-0.7-1.3-0.7-1.8c-0.2-1.7-0.1-3.4,0.1-5.2c0.2-1.7,0.8-3.3,1.6-5
			c1.1-2.2,2.3-4.7,3.3-7c1.6-3.5,5.6-7.2,9.3-9.8c2-1.4,3.7-2.8,4.9-4.3c1.1-1.4,1.8-3.3,2.4-4.6c0.6-1.2,1-2.1,1.5-3.6
			c0.5-1.6,0.3-1.8-0.3-3.7c-0.1-0.4-0.2-0.9-0.3-1.4c0.4-2.2,3-5.1,5.1-7.8c0.8-1.1,1.6-1.6,2.5-1.6c0.8,0,1.2-0.2,0.3-1
			c-1.6-1.4-2.5-1.2-3.9,0.7c-1.1,1.5-2.7,3.4-4,4.8c-0.4,0.4-0.9,0.8-1.7,1.2c-0.5,0.2-1.4,0.5-2.1,0.6c-0.3,0.1-0.8-0.2-0.7-0.3
			c0.3-1,1.2-2.9,2.4-4.5c1.9-2.5,3.6-5,4.5-6.8c0.5-0.8,0.9-1.2,1.1-1.3c0.5-0.3-1.3,1.9-2.9,3.2c-0.3,0.2-0.5,0.5-0.6,0.8
			c-1.4,2.9,1.3,3.9,0.7,6.2c-0.1,0.5-0.5,1.4-1,1.7c-1.6,0.9-6,4.6-9.9,7.9C71.3,81.9,64.5,88.9,62,95.1c-1.4,3.5-2,7.1-1.6,10.4
			c0.2,1.6,1.2,3.1,2.9,4.5c0,0,0-0.1-0.1-0.1c0.1,1.8,0.9,3.8,1.6,5.7c0.2,0.5,0.4,1.2,0.7,1.7c1.5,1.9,1.7,3.2,1.1,4.8
			c-0.3,0.8,0,1.7,0.5,2.6c1,1.7,1.5,3.4,2.5,5.5c-0.8-0.2-1.3-0.4-1.7-0.4c-0.3,0-0.7,0.2-0.7,0.4c0,0.4,0.2,1,0.6,1.4
			c1.7,2,2.8,3.8,1.6,5.2c-0.8,0.9-0.4,1.9,0.5,3c0.6,0.8,1.6,1.6,2.2,2.4c0.7,1,0.2,1.8-1.1,2.4c-0.7,0.4-3.3,0.4-4.7-0.1
			c-1.5-0.5-3-1-4-1.6c-1.2-0.7-2.2-1.6-2.6-2.3c-3.2-5.3-8.6-10.1-13.1-14.2c-3.7-3.4-5.1-6.7-7.1-9.9c-1.1-1.7-1.9-3.6-2.9-5.4
			c-1-1.7-2-3.5-3.3-5.2c-2.6-3.4-5.5-7.2-7.8-10.8c-1.1-1.8-2.4-3.5-3.5-5.2c-2.7-4-3.9-8.3-6.5-12.7c-1.6-2.7-2.8-5.6-4.5-8.4
			c-0.8-1.3-1.5-2.7-2.5-4c-1.4-1.9-2.4-3.8-3.2-5.8c-1.3-3-1.9-6.2-3.6-9.1c-1.4-6.6-2.8-13.3-0.3-19.7c1-2.6,2.2-5.1,3.7-7.6
			c2.9-4.7,7.8-8.7,12.3-12.3c4.8-3.8,8.7-6.8,13.9-8.7c1.4-0.5,2.8-0.9,4.3-1c4.1-0.3,8.2-0.2,12.3,0.8c2.9,0.7,5.8,1.1,8.5,2.3
			c1.5,0.7,3,1.3,4.3,2.3c3.3,2.4,6.6,4.7,9.5,7.4c2,1.8,3.3,4.2,5,6.4c0.3,0.4,0.5,0.8,0.7,1.2c0.5,0.7,1.7,0.7,2.3,0
			c1.2-1.4,2.5-2.9,3.5-4.4c2.3-3.7,5.9-6.2,9.5-8.9c2.5-1.8,5.1-2.8,7.7-3.4c3.3-0.7,7.6-2.3,11.3-3.4c1.1-0.3,2.3-0.5,3.5-0.7
			c1.9-0.3,3.6,0,5,1.3c0.5,0.4,1,0.8,1.6,1.1c1.4,0.6,3,0.8,4.2,0c0.3-0.2,0.8-0.2,1.2-0.4c3.3,1,5.7,3.4,8.7,5.4
			c0.7,0.5,1.2,1.3,1.6,2.1c0.4,0.7,0.7,1.5,1.1,2.3c0.9-0.1,1.6,0,2.1-0.2c1.5-0.5,2.9-0.3,4.3,0.4c0.4,0.2,0.8,0.4,1.1,0.5
			c-0.1,0-0.1-0.1-0.2-0.1c0.2,1.5-1.6,2.4-2.1,3.7c0.1-0.1,0.1-0.1,0.2-0.1c-1.2,0.5-2,1.2-1.5,2.3c0.3,0.8,0.6,1.6,0.9,2.4
			c0.4,1,1.1,1.8,2.3,2.5c0.8,0.4,1.4,0.9,2.1,1.4c0.1,3.4-0.1,1.6,0.9,6.6c-0.5-0.3-0.9-0.7-1.4-1c-0.3-0.1-0.8,0-1.1,0
			c0,0,0,0.3,0.1,0.4c0.1,0.1,0.3,0.3,0.5,0.3c0.7,0.1,1.3,0.1,2,0.1c3,1.6,2.2,0.6,4.5,3.6c0.1,1.5-1.3,1.8-1.6,3
			c0.1,0.3,0.1,0.7,0.2,0.9c0.5,0.9,0.7,1.8,0,2.8c-0.5,0.7-0.9,1.4-1.4,2.2c-1,0-2.3,0-3.6-0.1c-0.2,0.2-0.8,0.5-0.7,0.7
			c0.6,2.3,0.2,4.6-0.9,6.7c-0.5,1-0.9,1.9-1.3,2.8c0.4,1.3,2.8,1.7,2.9,3.2c-1.2-0.1-2.3-0.3-3.5-0.5c0.3,1.2,0.7,2.2,0.7,3.2
			c0,1.7,0,3.4-0.3,4.9c-0.1,0.7-0.7,1.5-1.5,1.9c-2.7,1.6-5.8,2.8-8.6,4.3c-0.9,0.5-1.9,0.5-3.1,0.3c-0.9-0.2-1.4,0-1.7,0.7
			c-0.6,1.3-2.2,1.5-3.5,1.4c-1.4-0.1-2.8-0.3-4.2-0.4c-0.7-0.6-0.2-1.5-0.1-2.2c0.1-1-0.4-1.5-1.2-1.8c-0.9-0.4-0.6-0.9-0.2-1.5
			c0.1-0.2,0-0.7-0.2-0.8c-0.4-0.2-1-0.1-1.4-0.3c-0.3-0.1-0.7-0.4-0.7-0.6c0.1-0.4,0.2-1,0.5-1.1c1.2-0.4,2.6-0.6,3.9-0.9
			c0.2-0.1,0.4-0.5,0.5-0.7c0-0.1-0.1-0.3-0.2-0.4c-0.7-0.4-1.6-0.7-2.5-0.9c-0.3-0.1-1-0.1-1.1,0.1c-1.4,1-3.4,1-5,1.2
			c-0.9,0.1-1.4,0.5-2,0.8c-0.7,0.4-1.4,1.2-2.4,1.7c-0.8,0.4-1.8,0.5-2.9,0.8c0.1,1.7,0.3,3.5,0.5,5.3c1.4,1.9,3.6,2.9,4.8,5.3
			c1.3,2.5,3.3,3.6,5.1,3.3c0-0.1-0.1-0.1-0.1-0.2c-0.4,1.5-0.4,3,0.7,4.2c0.3,0.3,0.6,0.9,0.8,1.3c0.4,0.8,0.3,2.2-0.2,2.6
			c-0.8,0.7-1.8,1.4-2.9,1.8c-0.3-1.7-0.2-1.2-0.7-1.9c0.3,0.8,0.1,0.3,0.8,1.7c0.6,0.3,1.2,0.6,1.8,0.8c0.6,0.3,1,1.1,0.8,1.9
			c-0.3,1.1-0.6,2.1-1.1,3c-0.4,0.8-1.3,0.5-2.2-0.6c-0.4-0.5-0.7-1.1-1.2-1.6c-0.5-0.6-1.6-0.4-1.9,0.2c-0.4,0.8-0.4,1.8,0.2,2.7
			c0.4,0.7,1.1,1.4,1.5,2.1c0.4,0.7,0.8,1.4,1.1,2.1c-0.5,0.8-1,1.4-1.5,2.1c-0.8,1.1-2.1,1.7-3.9,1.6c-3-0.2-4.5,0.7-5.6,2.5
			c-1,1.8-2.5,3.4-3.5,5.2c-0.3,0.5-1.3,0.7-1.9,0.3c-0.5-0.3-1-0.6-1.5-0.9c-1.5-0.9-2.9-2.2-4.8-2.1c-3-2.4-4.5-1.4-6,0.1
			c-0.1,0.1,0,0.3,0.1,0.7c1,0.2,2.1,0.3,3.1,0.5c0.8,0.2,1.7,1.1,2,1.8c0.5,1.2,0.7,2.3,0,3.1c-1,1.1-1.6,2.3-1.7,3.9
			c-0.3,2.6-1.8,4.2-5.5,4.6c0-0.3,0-0.6,0-0.9c0,0.3,0,0.5,0.1,0.8c0.4,1.1,0.5,2.1-1.1,2.3c-4.7,0.5-7.2,2.4-6.7,3.7
			c0.1,0.4,0,0.2-0.3-0.2C73.9,129.6,73.9,129.7,74,129.7z M71.9,73.4c0.5-0.1,1.1-0.3,1.6-0.5c0-0.2-0.1-0.5-0.1-0.7
			c-1,0.5-0.6,0.1-1.3,1.2c-0.5,0.3-0.9,0.5-1.3,0.8c-0.1,0,0.1,0.3,0.2,0.3C72.1,74.1,72,73.8,71.9,73.4z M71.1,110.4
			c0.3-0.7,0.7-1.5,1.1-2.2c0.5-0.3,1-0.4,1.4-0.9c0.2-0.2,0.3-0.9,0.3-1.4c0-0.2-0.4-0.4-0.6-0.4c-0.4-0.1-0.9,0.2-0.9,0.8
			c-0.1,0.7-0.1,1.4-0.1,2.1C71.3,108.5,70.2,108.3,71.1,110.4c0.3,0.9,0.7,1.4,1.3,1.1c0.1,0,0.2-0.1,0.3-0.3
			c0.1-0.4,0-0.6-0.3-0.7C72,110.5,71.5,110.5,71.1,110.4z M140.5,37.7c0.4,0,0.8,0,0.9,0c-0.2,0-0.6,0-1.1,0c0.3-1.6,0.8-2-0.3-2.6
			c-0.4-0.2-1.4,0.6-1.1,1C139.3,36.6,140,37.1,140.5,37.7z M101.1,95.8c-1.1-0.2-2.4-0.4-1.5,0.3C99.9,96.3,100.9,95.9,101.1,95.8
			c-0.1,0.9-0.4,1.8-0.5,2.8c-0.1,0.4,0.2,1,0.4,1.5c0,0.1,0.3,0.3,0.4,0.3c0.2,0,0.4,0,0.5-0.1C102.7,98.9,101.9,97.4,101.1,95.8z
			 M102.9,93.2c-1-0.4-2-0.9-2.8-0.5c-0.1,0.1-0.2,0.3-0.1,0.4c0.1,0.2,0.3,0.4,0.4,0.4C101.5,94,102.2,93.5,102.9,93.2
			c0.4,1.1,0.6,2.1,1,3.2c0.1,0.3,1.1,0.8,1.6,0.8c1,0,1.5-0.8,1.3-1.8c-0.4-1.7-2.3-1.7-4.2-2.1c0.9-0.6,1.7-1.2,2.6-1.8
			c0.9-0.2,1.7-0.6,1.4-1.8c-0.1-0.5-0.6-1.1-1-1.6c-0.2-0.2-1-0.3-1-0.2c-0.2,0.4-0.5,0.9-0.3,1.4c0.2,0.7,0.8,1.5,1.2,2.2
			C103.8,91.2,102.9,91.6,102.9,93.2z M124.1,52.7c-0.5-0.2-0.9-0.4-1.3-0.3c-1.3,0.3-3.1,1.5-3.3,2.1c-0.4,1.1-0.6,2.2-0.8,3.2
			c-0.1,0.4,1.3,0.5,2.1,0.2c0.4-0.2,0.9-0.3,1.1-0.6C123.5,55.8,123.8,54.2,124.1,52.7z M108.7,62.1c-2.1-0.1-2.5,0.1-5.1,0.7
			c-0.5,0.1-1,0.2-1.2,0.3c-0.1,0,0.1-0.1,0.4-0.1c2.2-0.4,4.2-0.6,5.9-0.5c0.1,0,0.4,0,0.5-0.1c0.1,0,0.2-0.1,0.2-0.1
			C109.3,62.2,109,62.1,108.7,62.1z M124,67.4c-0.1,0.1-0.4,0.1-0.4,0.2c-0.1,0.6-0.1,1.2-0.1,1.7c0,0.1,0.3,0.3,0.3,0.3
			c0.3-0.1,0.7-0.2,0.8-0.3c0.3-0.6,0.2-1.2-0.2-1.7C124.4,67.5,124.2,67.4,124,67.4z M64,84.3c0.2-0.1,0.5-0.1,0.6-0.2
			c0.6-0.7,1.3-1.5,1.8-2.3c0.1-0.1-0.5-0.5-0.7-0.4c-1.8,0.4-2.9,1.9-2.2,2.8C63.6,84.2,63.9,84.2,64,84.3z M80.8,104.5
			c-0.3-0.4-0.6-0.9-0.9-1.3c-0.2,0.1-0.7,0.3-0.7,0.4c0.1,0.4,0.5,0.9,0.7,1.4C80.2,104.8,80.4,104.6,80.8,104.5z M108.3,57.9
			c0.4-0.2,0.6-0.3,1-0.6c-0.2,0-0.3,0.1-0.6,0.1C108.6,57.6,108.5,57.7,108.3,57.9z M102.8,76.6c0-0.2,0-0.3,0-0.5
			c-0.3,0-0.5,0-0.8,0.1c-0.1,0,0,0.3,0,0.5C102.3,76.6,102.5,76.6,102.8,76.6z M102.9,85.1c-0.1-0.1-0.2-0.2-0.3-0.4
			c-0.1,0.1-0.1,0.2-0.1,0.4C102.6,85.1,102.7,85.1,102.9,85.1z M86.3,92.7c0.1,0.1,0.2,0.1,0.3,0.2c0-0.2,0-0.2-0.1-0.4
			C86.4,92.6,86.4,92.6,86.3,92.7z M77.5,107.6c-0.1-0.1-0.3-0.2-0.4-0.2c-0.3,0.4-0.4,0.2,0.2,0.5
			C77.4,107.8,77.5,107.7,77.5,107.6z M148.2,39.7c-0.2,0-0.2,0-0.4-0.1c0.1,0.1,0.1,0.2,0.1,0.3C148,39.8,148,39.8,148.2,39.7z
			 M56.3,118.6c-0.2,0-0.3,0-0.4,0c0.1,0.1,0.1,0.2,0.2,0.3C56.2,118.7,56.2,118.7,56.3,118.6z"/>
		<path fill="#FF8320" d="M137.5,144.2c-0.4-0.3-0.9-0.3-1.1,0.1c-0.3,0.7-0.6,1.4-0.7,2.1c-0.2,1.2-0.7,2.2-1.8,3.3
			c-0.5,0.5-0.9,1.1-1.4,1.6c-2.2,2.2,0.6,2.7-0.3,7.3c-0.3,1.4,1.8,1.4,0.5,2.8c-0.5,0.5-1.1,1-1.8,1.6c-2.8-1.3-5.7-3.2-6.7-5.5
			c-1.5-3.4-2.5-6.1-3-8.9c-0.7-3.9-3.6-7.6-6.2-14.2c-2.2-5.5-3.1-11.5-3.3-17.6c-0.1-4.9-3.8-9.3,0.8-11.9
			c1-0.5,5.4-14.4,12.9-10.4c3.2,1.7,2.9,7.2,5.4,6.6c1.6-0.4,2.5-4.5,5.1-7.3c5.9-6.4,11.5-7.7,14.7-8.8c3.9-1.3,9.3-2.1,13,1
			c5.1,4.2,5.5,1.4,9.5,7.1c0.3,0.4,0.5,0.8,0.6,1.3c0.2,0.5,0,0.8-0.5,1.2c-1.1,0.9-1.2,1.2-0.8,1.8c0.3,0.4,0.5,0.8,0.9,1.1
			c3.1,3.2,2.7,6.9,1.3,10.5c-0.6,1.5-1.9,2.8-3,4.2c-0.1,0.1-0.3,0.2-0.4,0.2c-1.1,0.3-2.2,0.6-2.8,1.8c-0.4,0.8-0.7,1.7-1.1,2.5
			c-4.6-1.1-2.5-3.6-3.9-4.6c-0.1-0.1-0.3-0.2-0.4-0.2c-0.3,0.1-0.7,0.2-0.8,0.4c-0.4,1.1-0.4,2.9-0.5,3.7c-0.1,0.6-0.3,1.2-0.4,1.5
			c0.9,1.7,4-0.4,1.3,4.1c-1,1.7-2.9-0.3-4-1.2c0,0,0.1,0.1,0.1,0.1c-0.5-1.6-0.5-1.6-1.5-1.2c-1,0.4-1.9,1-2.7,1.8
			c0.2,1.4,0.4,2.6-0.1,4.7c-0.2,1.1,0,2.1,0,3.2c0,0.7-0.3,2.1-0.5,2.4c-0.3,0.5-0.3,0-0.4-0.3c-0.3-0.7-0.3-0.7-1.1,1.2
			c0,0,0,0,0.1,0c-0.1-0.7-0.3-1.5-0.5-2.3c0.9-2.5,1-2.5,0-4.7c-0.6,0.7-1.3,1.4-2.1,1.9c-0.1,0.1-0.2,0.9-0.1,1.1
			c0.2,0.5,0.5,0.7,0.8,1.1c-0.6,0.8-2.2,1.8-2.3,4c-0.1,1.4-0.6,2.6-1,3.4c0.3,0.5,0.5,1,0.8,1.4c0.5,0.7,1,1.5,0.3,2.1
			c-0.8,0.7-0.7,1.6-1.1,2.2c-0.5,0.8-1.4,1.4-2.3,1c-1.3-0.6-1.9-0.2-2.5,0.3c-1.1-0.2-1.6-1.2-2.3-1.9c-0.4-0.3-0.8-0.7-1.2-0.2
			c-0.2,0.2,0,0.7,0,1.1c0,0.7-0.1,0.8-0.9,0.7C138,144.3,137.7,144.2,137.5,144.2C137.5,144.2,137.5,144.2,137.5,144.2z
			 M156.6,114.3c-0.2,0.3-0.5,0.6-0.5,0.8c0,0.8,0.4,1,1,1c0.2,0,0.5-0.1,0.8-0.3c0.1,0,0.2-0.3,0.2-0.4
			C157.9,114.6,157.3,114.1,156.6,114.3z M164.4,91.1c-0.1-0.1-0.3-0.2-0.4-0.2c-0.1,0-0.4,0.1-0.4,0.2c-0.1,0.4,0.1,0.6,0.5,0.4
			C164.3,91.4,164.3,91.2,164.4,91.1z M170.5,93.8c-0.1,0.1-0.3,0.2-0.3,0.2c0,0.4,0.2,0.5,0.5,0.2c0.1-0.1,0.1-0.2,0.1-0.3
			C170.7,93.9,170.6,93.8,170.5,93.8z M166.5,110.5c0.1-0.1,0.1-0.3,0.2-0.4c-0.5-0.2-0.3-0.3-0.6,0.2
			C166.3,110.4,166.4,110.4,166.5,110.5z M155.1,118.1c0-0.1,0-0.3-0.1-0.4c-0.2-0.2-0.4,0-0.4,0.5c0,0.1,0.1,0.2,0.2,0.2
			C154.9,118.4,155,118.2,155.1,118.1z M161.2,121.6c0.1-0.1,0.1-0.1,0.2-0.2c-0.1,0-0.2,0-0.3,0
			C161.2,121.5,161.2,121.5,161.2,121.6z"/>
		<path fill="#FF8320" d="M142.6,16.3c5.5,0.7,4.2,0.5,6.3,0.2c2.3,4.3,2.4,8.7,2.6,12.9c-0.6,0.6-1.5,0.2-1.6-0.6
			c-0.9-3.8-3.6-7.2-6.4-10.7c-0.4-0.6-0.5-1.3-0.7-1.9C142.7,16.2,142.6,16.2,142.6,16.3z"/>
		<path fill="#FF8320" d="M116.9,72.1c-0.2,0.5-0.3,1.2-0.7,1.7c-0.8,1-1.8,1.6-3.1,1.6c-0.7,0-1.5-1.3-0.8-2.6
			c0.1-0.2,0.6-0.4,0.7-0.3c1.5,1.3,2.2,0.6,2.8-0.9c0.1-0.3,0.5-0.4,0.7-0.1C116.7,71.6,116.7,71.8,116.9,72.1z"/>
		<path fill="#FF8320" d="M119.1,78.2c0.1-0.3,0.3-0.6,0.4-1c0.4-1.5,1.3-2.3,2.6-2.4c0.6-0.1,1.2-0.1,1.8,0c0.1,0,0.2,0.2,0.3,0.4
			c-5.9,3.1-3.4,3.4-5.1,2.8C119.2,78.1,119.2,78.1,119.1,78.2z"/>
		<path fill="#FF8320" d="M115.2,80.3c-0.1-4.9,1.9-3.2,4-2.2c0-0.1,0.1-0.1,0.1-0.2c-1.3,0.7-2.3,1.7-2.1,4.1
			c0,0.1-0.2,0.2-0.3,0.4c-0.6-0.7-1.2-1.5-1.8-2.3C115.1,80.2,115.1,80.3,115.2,80.3z"/>
		<path fill="#FF8320" d="M95,118.3c-0.3,0.6-0.5,1-0.8,1.3c-0.4,0.3-1.1-0.4-1.3-1c-0.1-0.6-0.1-1.2,0.5-1.1
			C93.8,117.4,94.3,117.9,95,118.3z"/>
		<path fill="#FF8320" d="M156.4,124.2c0.1-1.8-0.5-2.2,2.6-2.7c0,0-0.1-0.1-0.1-0.1C158.4,123,157.3,123.6,156.4,124.2
			C156.3,124.2,156.3,124.2,156.4,124.2z"/>
		<path fill="#FF8320" d="M152.5,133.3c-1.1,4.1-1.1,3.6-1.7,4c-0.3,0.2-0.4-1.2,0.2-1.8C151.6,134.8,152.1,134.1,152.5,133.3
			C152.6,133.3,152.5,133.3,152.5,133.3z"/>
		<path fill="#FF8320" d="M156.3,124.2c-0.1,2.3,0,1.9-0.6,2.6c0,0-0.1-0.2-0.1-0.3C155.9,125.7,156.1,124.9,156.3,124.2
			C156.3,124.2,156.3,124.2,156.3,124.2z"/>
		<path fill="#FF8320" d="M66.2,98.5c-0.2,0.2-0.4,0.3-0.6,0.5c-0.1-0.1-0.2-0.3-0.2-0.3c0.2-0.2,0.4-0.3,0.6-0.5
			C66.1,98.3,66.1,98.4,66.2,98.5z"/>
		<path fill="#FF8320" d="M150.7,130.5c0.7-0.3,1.2-0.4,1.5,0.6C151.6,132.2,151,131.8,150.7,130.5z"/>
		<path fill="#FF8320" d="M110.6,68c0.7-0.2,1.5-0.7,1.6,0.1c0,0.3-0.4,0.6-0.7,0.4c-0.3-0.2-0.5-0.4-0.8-0.6
			C110.7,68,110.7,68,110.6,68z"/>
		<path fill="#FF8320" d="M119.6,84c-0.1-0.1-0.1-0.1-0.2-0.2c0.1-0.1,0.1-0.1,0.2-0.2C119.5,83.8,119.6,83.8,119.6,84z"/>
		<path fill="#FF8320" d="M73.9,129.6c0.2,0.3,0.6,1,0.5,1c0,0-0.2-0.2-0.3-0.4c-0.1-0.2-0.1-0.3-0.2-0.4
			C73.9,129.7,73.9,129.6,73.9,129.6z"/>
		<path fill="#FF8320" d="M148.5,47.1c0.1,0.1,0.2,0.3,0.2,0.4c-0.2,0.5-0.5,0.4-0.5-0.1C148.1,47.3,148.4,47.2,148.5,47.1z"/>
		<path fill="#FF8320" d="M147.4,52c0.1,0.1,0.2,0.1,0.3,0.2c-0.2,0-0.2,0.1-0.4,0.1C147.3,52.2,147.3,52.1,147.4,52z"/>
		<path fill="#FF8320" d="M109.2,72.1c0-0.1-0.1-0.3,0-0.4c0,0,0.3,0,0.3,0c0.1,0.1,0.1,0.3,0.1,0.4
			C109.5,72.1,109.3,72.1,109.2,72.1z"/>
		<path fill="#FF8320" d="M89.5,73.1c0.2-0.3,0.1-0.3,0.2,0C89.6,74,89.6,73.7,89.5,73.1C89.5,73.1,89.5,73.1,89.5,73.1z"/>
		<path fill="#FF8320" d="M144.9,12.7c-0.1-0.3-0.2-0.5-0.3-0.8c0.8,0.2,0,0.4,0.1,0.7C144.8,12.6,144.8,12.6,144.9,12.7z"/>
		<path fill="#FF8320" d="M110.7,67.9c-0.3,0-0.6,0-0.9,0c0.3,0,0.1-0.1,0.8,0.1C110.7,68,110.7,68,110.7,67.9z"/>
		<path fill="#FF8320" d="M89.5,73.1c-0.1,0.3-0.1,0.6-0.2,0.9C89.5,73.6,89.4,73.8,89.5,73.1C89.5,73.1,89.5,73.1,89.5,73.1z"/>
		<path fill="#FF8320" d="M79.9,82.3c-0.1,0.1-0.1,0.2-0.2,0.3c-0.1-0.1-0.1-0.1-0.2-0.1C79.7,82.4,79.8,82.3,79.9,82.3z"/>
		<path fill="#FF8320" d="M63.3,110c-0.1-0.3-0.3-0.5-0.6-1C62.8,109.2,63.1,109.9,63.3,110z"/>
	</g>
</g>
</svg>
